<?xml version="1.0" standalone="no"?>
<!DOCTYPE svg PUBLIC "-//W3C//DTD SVG 20010904//EN"
 "http://www.w3.org/TR/2001/REC-SVG-20010904/DTD/svg10.dtd">
<svg version="1.0" xmlns="http://www.w3.org/2000/svg"
 width="2000.000000pt" height="1500.000000pt" viewBox="0 0 2000.000000 1500.000000"
 preserveAspectRatio="xMidYMid meet">

<g transform="translate(0.000000,1500.000000) scale(0.100000,-0.100000)"
fill="#000000" stroke="none">
<path d="M15634 9401 c-66 -5 -217 -16 -335 -25 -117 -8 -443 -20 -724 -26
-591 -12 -731 -17 -1855 -70 -459 -22 -950 -44 -1090 -51 -192 -8 -650 -8
-1865 2 -2381 18 -3367 5 -4490 -62 -663 -39 -1347 -101 -1585 -143 -47 -9
-184 -25 -305 -36 -285 -27 -472 -54 -582 -85 -219 -63 -311 -149 -289 -270
13 -65 96 -210 207 -360 120 -163 152 -216 170 -291 6 -27 15 -52 18 -56 4 -4
23 -2 44 4 37 11 38 11 78 -30 44 -44 61 -51 180 -77 113 -23 116 -28 79 -96
-61 -113 -50 -215 40 -386 42 -79 47 -93 32 -97 -9 -3 -75 -15 -147 -26 -176
-28 -246 -52 -301 -104 -24 -24 -44 -51 -44 -62 0 -11 -7 -30 -16 -42 -14 -20
-24 -22 -99 -22 -46 0 -95 -4 -109 -10 -24 -9 -26 -13 -20 -50 6 -35 2 -47
-36 -106 -49 -74 -54 -112 -21 -147 20 -22 20 -26 6 -53 -23 -44 -19 -75 25
-183 27 -66 40 -115 40 -145 0 -43 2 -47 35 -63 19 -9 35 -24 35 -32 0 -9 -16
-36 -36 -60 -47 -61 -42 -77 31 -107 194 -80 437 -147 675 -188 329 -57 672
-76 1415 -76 631 0 912 -16 1225 -69 l105 -18 62 29 c81 38 99 35 95 -16 l-4
-39 39 6 c33 6 52 1 109 -28 38 -19 77 -35 86 -35 33 0 68 23 74 49 9 44 20
56 49 53 15 -2 33 2 41 9 18 15 18 48 -1 54 -53 17 -52 15 -26 36 52 43 83 20
136 -99 29 -65 64 -102 96 -102 15 0 16 4 7 37 -8 31 -7 39 8 50 10 7 24 13
32 13 7 0 34 14 58 32 l44 31 26 -24 c15 -13 35 -43 45 -65 29 -63 38 -68 95
-43 80 35 193 36 358 5 160 -30 278 -33 356 -10 68 20 144 20 246 1 147 -29
167 -29 233 -7 76 25 96 25 133 -1 l30 -22 496 9 c550 10 1138 12 1422 4 102
-3 340 1 530 9 251 10 829 14 2125 15 2307 3 2379 6 3380 137 209 27 418 54
465 60 101 13 130 29 204 111 132 145 206 377 206 648 1 199 19 462 45 637 14
93 29 259 35 373 5 113 15 303 21 423 14 251 9 358 -25 547 -49 277 -137 439
-294 542 -214 139 -523 242 -837 278 -120 14 -539 20 -691 11z m-10393 -991
c9 0 28 -11 43 -25 25 -24 29 -24 79 -13 82 19 271 16 342 -6 152 -45 262
-135 322 -262 34 -72 37 -85 36 -164 -1 -90 -20 -175 -55 -244 -30 -59 -114
-143 -196 -197 -68 -45 -213 -109 -246 -109 -33 0 -26 -26 30 -107 126 -183
312 -383 357 -383 60 0 152 -116 133 -166 -11 -28 -116 -67 -197 -72 -70 -4
-81 -2 -130 24 -72 39 -265 232 -365 366 -44 59 -102 148 -128 198 l-47 90
-59 0 c-47 0 -60 -3 -64 -17 -3 -10 -35 -135 -71 -278 -41 -159 -76 -277 -92
-303 -41 -71 -134 -100 -236 -71 -42 11 -77 56 -77 99 0 20 233 939 300 1183
l19 68 -22 -6 c-32 -10 -138 -62 -164 -81 -22 -16 -23 -15 -48 37 -34 73 -35
157 -2 186 27 26 161 93 243 122 43 16 65 31 77 51 30 51 126 95 182 84 11 -2
27 -4 36 -4z m5469 -23 c20 -11 69 -13 206 -9 251 6 373 -23 472 -113 109 -98
140 -302 67 -444 -45 -88 -169 -190 -277 -229 -26 -9 -48 -19 -48 -22 0 -4 22
-12 49 -19 127 -32 200 -131 209 -281 9 -149 -63 -333 -171 -442 -68 -68 -216
-145 -330 -173 -180 -43 -423 -34 -528 20 -21 12 -32 12 -65 0 -51 -19 -128
-19 -163 0 -31 15 -56 67 -67 135 -5 32 23 156 141 630 81 325 145 593 143
596 -11 10 -137 -48 -176 -82 l-40 -34 -31 37 c-54 65 -62 138 -22 206 20 36
123 86 253 124 85 25 98 32 113 59 15 29 33 42 75 58 25 9 161 -3 190 -17z
m-1203 -64 c20 -9 41 -30 50 -48 15 -30 13 -42 -30 -221 -25 -104 -44 -190
-42 -193 3 -2 53 2 112 8 59 7 139 12 177 13 64 1 71 -1 93 -26 28 -33 31
-104 6 -142 -30 -47 -76 -60 -268 -79 -99 -9 -182 -19 -184 -20 -1 -2 -39
-147 -83 -322 -88 -350 -89 -369 -38 -415 24 -22 40 -28 77 -28 81 0 125 30
214 146 44 57 90 111 102 119 25 18 57 19 109 5 29 -8 39 -18 47 -43 45 -134
-137 -356 -349 -427 -129 -43 -292 -34 -388 21 -89 51 -142 150 -142 265 0 40
109 517 146 638 6 18 2 19 -83 12 -97 -7 -113 0 -126 51 -8 33 11 105 36 136
20 24 32 28 122 39 55 6 105 16 111 22 7 6 29 85 49 176 42 185 60 233 101
271 64 59 119 72 181 42z m-1577 -394 c55 -12 94 -48 116 -105 15 -39 15 -46
-5 -118 -12 -42 -21 -78 -21 -79 0 -2 22 18 49 44 94 90 270 191 384 220 69
17 175 7 234 -22 36 -18 53 -35 71 -69 30 -59 28 -100 -9 -200 -30 -83 -97
-332 -118 -440 -6 -30 -20 -113 -30 -183 -18 -126 -18 -129 1 -193 l19 -65
-25 -34 c-37 -48 -83 -72 -158 -85 -133 -21 -178 21 -178 167 0 156 47 382
149 721 22 73 37 140 34 149 -5 12 -16 14 -49 10 -131 -14 -334 -218 -452
-452 -40 -80 -87 -215 -123 -350 -39 -151 -47 -158 -185 -153 -114 3 -144 18
-144 68 0 15 54 246 120 513 66 268 120 494 120 503 0 9 -16 34 -35 55 -19 22
-35 43 -35 49 0 40 172 72 270 49z m4261 -45 c48 -28 48 -53 -4 -126 -156
-224 -267 -548 -267 -785 0 -68 2 -73 31 -98 25 -20 38 -25 63 -20 103 21 296
103 347 147 23 20 37 64 113 370 110 443 129 489 221 523 79 31 187 5 200 -48
3 -12 -39 -202 -94 -422 -54 -220 -118 -479 -141 -577 -27 -114 -48 -182 -59
-192 -39 -35 -215 -38 -259 -4 -30 23 -33 32 -27 86 4 28 4 52 2 52 -3 0 -44
-25 -92 -55 -133 -83 -181 -98 -292 -91 -150 9 -251 56 -289 134 -54 110 -6
462 100 740 57 149 140 314 174 349 39 38 54 42 158 39 59 -2 90 -8 115 -22z
m-4966 -12 c110 -50 175 -152 175 -275 0 -83 -29 -140 -95 -189 -67 -50 -143
-82 -509 -208 -329 -114 -324 -111 -325 -178 -1 -57 25 -98 82 -127 43 -21 65
-25 136 -25 91 0 136 9 214 42 38 17 54 32 82 78 19 32 53 74 75 94 35 32 46
36 93 36 67 0 117 -25 141 -71 24 -45 18 -71 -34 -140 -81 -109 -216 -195
-377 -241 -113 -33 -336 -33 -439 -1 -128 41 -214 120 -246 226 -17 56 -14
215 6 305 73 332 351 613 681 686 105 23 275 17 340 -12z m6912 -14 c30 -27
39 -88 19 -126 -8 -16 -38 -47 -66 -67 -41 -30 -360 -362 -689 -718 l-55 -59
35 6 c70 13 298 36 404 42 108 7 111 6 140 -18 24 -21 29 -33 29 -76 1 -55
-21 -90 -76 -118 -35 -18 -880 -116 -927 -108 -55 10 -69 20 -91 70 -23 53
-26 97 -7 112 7 7 36 16 65 22 50 11 54 15 330 313 154 166 319 344 367 395
74 78 83 92 63 92 -13 0 -113 -9 -223 -20 -246 -24 -283 -25 -307 -3 -25 22
-24 95 2 149 18 36 27 43 67 54 81 20 454 59 808 83 57 4 87 -3 112 -25z
m1191 17 c25 -7 52 -58 52 -97 0 -35 -33 -82 -85 -119 -26 -19 -174 -169 -328
-334 -155 -165 -311 -330 -346 -368 l-65 -69 35 6 c71 13 298 36 404 42 103 6
112 5 137 -15 29 -23 44 -74 34 -114 -7 -29 -52 -76 -84 -88 -13 -5 -217 -32
-455 -59 -514 -60 -514 -60 -553 24 -27 57 -31 98 -11 114 7 7 37 16 65 23 52
11 54 13 345 326 160 173 325 351 365 394 87 93 105 87 -173 59 -246 -24 -283
-25 -307 -3 -38 34 -10 165 41 193 37 19 447 68 756 89 122 8 132 8 173 -4z"/>
<path d="M5425 8124 c-11 -2 -46 -9 -77 -16 -32 -6 -62 -16 -67 -22 -8 -11
-121 -472 -121 -497 0 -9 30 -10 118 -6 182 8 307 51 406 138 61 54 85 106 86
182 0 133 -89 209 -260 221 -36 3 -74 3 -85 0z"/>
<path d="M10753 8123 c-29 -2 -53 -6 -53 -8 0 -2 -22 -99 -50 -217 -27 -117
-52 -223 -55 -235 -5 -20 -1 -23 27 -23 55 0 204 29 279 55 176 59 269 178
240 307 -26 114 -110 140 -388 121z"/>
<path d="M10628 7423 c-36 -2 -71 -9 -76 -16 -9 -11 -67 -218 -120 -429 l-20
-77 52 -13 c70 -18 218 -15 290 6 141 41 256 129 291 220 25 65 18 171 -14
218 -63 91 -125 105 -403 91z"/>
<path d="M6978 7679 c-125 -29 -317 -178 -403 -312 -10 -15 -15 -30 -12 -33 8
-9 367 125 450 168 43 22 87 52 98 66 53 68 -29 136 -133 111z"/>
</g>
</svg>
