<svg xmlns="http://www.w3.org/2000/svg" height="1200" width="1600" version="1.1" xmlns:xlink="http://www.w3.org/1999/xlink" xmlns:svgjs="http://svgjs.com/svgjs"><rect fill="#ffffff" width="1600" height="1200"></rect><g><path d="M1194.68 288.13L1170.76 288.13C1170.6 288.13 1170.58 287.88 1170.74 287.87 1178.69 287.13 1184.82 280.13 1185.15 271.98 1185.55 262.35 1177.56 254.43 1167.93 254.43H1160.22 1127.04 1073.18C1067.58 254.43 1062.79 258.81 1062.64 264.41 1062.5 269.52 1066.09 273.62 1070.89 274.69 1071.04 274.72 1071.02 274.95 1070.86 274.95 1065.34 274.95 1049.86 274.95 1040.77 274.95 1033.36 274.95 1027.05 280.7 1026.79 288.11 1026.52 295.88 1032.73 302.27 1040.44 302.27H1137.4 1153.47 1194.91C1198.87 302.27 1202.05 299.03 1201.98 295.07 1201.91 291.18 1198.57 288.13 1194.68 288.13Z" fill="#78c7e0" stroke="#333333" stroke-width="2" stroke-linecap="round" stroke-linejoin="round" opacity="1"></path><path d="M1213.63 371.62H1241.67C1258.02 371.62 1271.29 358.35 1271.29 342V342C1271.29 325.63 1258.02 312.37 1241.67 312.37H1235.2V307.6C1235.2 296.08 1225.86 286.74 1214.35 286.74H1189.14 1175.78 1141.8C1131.92 286.74 1123.9 294.76 1123.9 304.64L1123.9 304.64C1123.9 313.73 1130.61 320.79 1139.44 322.28 1139.61 322.3 1139.59 322.54 1139.42 322.54H1125.81C1112.25 322.54 1101.26 333.52 1101.26 347.08V347.08C1101.26 360.63 1112.25 371.62 1125.81 371.62H1186.49 1202.91" fill="#78c7e0" stroke="#333333" stroke-width="2" stroke-linecap="round" stroke-linejoin="round" opacity="1"></path></g><g><path d="M227.41 897.06C241.72 911.37 264.62 911.37 278.93 897.06L442.93 733.06 391.41 681.55 227.41 845.54C212.81 859.85 212.81 882.75 227.41 897.06Z" fill="#48466d" stroke="#333333" stroke-width="2" stroke-linecap="round" stroke-linejoin="round" opacity="1"></path><path d="M475.7 628.48C380.13 532.92 380.13 377.97 475.7 282.4 571.26 186.84 726.22 186.84 821.78 282.4 917.34 377.97 917.34 532.92 821.78 628.48 726.22 724.05 571.26 724.05 475.7 628.48Z" fill="#ffffff" stroke="#333333" stroke-width="2" stroke-linecap="round" stroke-linejoin="round" opacity="1"></path><path d="M451.8 434.26C451.23 441.42 450.65 448.57 450.65 455.73 450.65 565.06 539.38 653.78 648.71 653.78 758.04 653.78 846.77 565.06 846.77 455.73 846.77 346.4 758.04 257.67 648.71 257.67 561.13 257.67 486.72 314.63 460.38 393.91" stroke="#333333" stroke-width="2" stroke-linecap="round" stroke-linejoin="round" opacity="1" fill="none"></path><path d="M486.14 638.33L417.45 707.31" stroke="#333333" stroke-width="2" stroke-linecap="round" stroke-linejoin="round" opacity="1" fill="none"></path></g><g><path d="M1018.26 821.61H1014.02C1014.02 806.66 1001.9 794.75 987.16 794.75H983.73V790.92C983.73 774.16 970.2 760.63 953.45 760.63 936.69 760.63 923.16 774.16 923.16 790.92V800.81C911.45 800.81 902.16 810.3 902.16 821.81H896.91C873.29 821.81 853.9 840.99 853.9 864.82 853.9 888.44 873.08 907.82 896.91 907.82H1018.06C1041.68 907.82 1061.06 888.64 1061.06 864.82 1061.06 840.99 1041.88 821.61 1018.26 821.61Z" fill="#3d84a8" stroke="#333333" stroke-width="2" stroke-linecap="round" stroke-linejoin="round" opacity="1"></path><path d="M956.88 844.42C939.51 844.42 925.38 858.56 925.38 875.92 925.38 893.28 939.51 907.42 956.88 907.42H1138.6C1155.96 907.42 1170.1 893.28 1170.1 875.92 1170.1 858.56 1155.96 844.42 1138.6 844.42H1091.55C1101.45 844.42 1109.32 836.55 1109.32 826.65 1109.32 816.76 1101.45 808.89 1091.55 808.89H1005.34C995.44 808.89 987.57 816.76 987.57 826.65 987.57 836.55 995.44 844.42 1005.34 844.42H973.84" fill="#3d84a8" opacity="1" stroke-width="2" stroke="none"></path><path d="M956.88 844.42C939.51 844.42 925.38 858.56 925.38 875.92 925.38 893.28 939.51 907.42 956.88 907.42H1138.6C1155.96 907.42 1170.1 893.28 1170.1 875.92 1170.1 858.56 1155.96 844.42 1138.6 844.42H1091.55C1101.45 844.42 1109.32 836.55 1109.32 826.65 1109.32 816.76 1101.45 808.89 1091.55 808.89H1005.34C995.44 808.89 987.57 816.76 987.57 826.65 987.57 836.55 995.44 844.42 1005.34 844.42H973.84" stroke="#333333" stroke-width="2" stroke-linecap="round" stroke-linejoin="round" opacity="1" fill="none"></path></g><g><path d="M517.58 746.84V578.81H686.66L686.66 906.89H517.58L517.58 809.58" fill="#abedd8" opacity="1" stroke-width="2" stroke="none"></path><path d="M517.58 746.84V578.81H686.66L686.66 906.89H517.58L517.58 809.58" stroke="#333333" stroke-width="2" stroke-linecap="round" stroke-linejoin="round" opacity="1" fill="none"></path><path d="M842.7 458.11H1022.58L1022.58 906.89H842.7V458.11Z" fill="#abedd8" stroke="#333333" stroke-width="2" stroke-linecap="round" stroke-linejoin="round" opacity="1"></path><path d="M643.83 144.91L896.33 144.91 896.33 906.36H643.83L643.83 144.91Z" fill="#abedd8" stroke="#333333" stroke-width="2" stroke-linecap="round" stroke-linejoin="round" opacity="1"></path><path d="M729.11 698.45H810.67V906.89H729.11V698.45Z" fill="#78c7e0" stroke="#333333" stroke-width="2" stroke-linecap="round" stroke-linejoin="round" opacity="1"></path><path d="M846.43 225.74H790.56" stroke="#333333" stroke-width="2" stroke-linecap="round" stroke-linejoin="round" opacity="1" fill="none"></path><path d="M749.6 225.74H694.11" stroke="#333333" stroke-width="2" stroke-linecap="round" stroke-linejoin="round" opacity="1" fill="none"></path><path d="M846.43 301.24H790.56" stroke="#333333" stroke-width="2" stroke-linecap="round" stroke-linejoin="round" opacity="1" fill="none"></path><path d="M749.6 301.24H694.11" stroke="#333333" stroke-width="2" stroke-linecap="round" stroke-linejoin="round" opacity="1" fill="none"></path><path d="M846.43 377.28H790.56" stroke="#333333" stroke-width="2" stroke-linecap="round" stroke-linejoin="round" opacity="1" fill="none"></path><path d="M749.6 377.28H694.11" stroke="#333333" stroke-width="2" stroke-linecap="round" stroke-linejoin="round" opacity="1" fill="none"></path><path d="M846.43 452.79H790.56" stroke="#333333" stroke-width="2" stroke-linecap="round" stroke-linejoin="round" opacity="1" fill="none"></path><path d="M987.2 523.51H931.71" stroke="#333333" stroke-width="2" stroke-linecap="round" stroke-linejoin="round" opacity="1" fill="none"></path><path d="M987.2 599.55H931.71" stroke="#333333" stroke-width="2" stroke-linecap="round" stroke-linejoin="round" opacity="1" fill="none"></path><path d="M608.82 639.43H552.96" stroke="#333333" stroke-width="2" stroke-linecap="round" stroke-linejoin="round" opacity="1" fill="none"></path><path d="M608.82 714.93H552.96" stroke="#333333" stroke-width="2" stroke-linecap="round" stroke-linejoin="round" opacity="1" fill="none"></path><path d="M749.6 452.79H694.11" stroke="#333333" stroke-width="2" stroke-linecap="round" stroke-linejoin="round" opacity="1" fill="none"></path></g><g><path d="M1305.23 686.94L1246.35 676.05 1187.36 686.94V907.19H1305.23V686.94Z" fill="#48466d" stroke="#333333" stroke-width="2" stroke-linecap="round" stroke-linejoin="round" opacity="1"></path><path d="M1137.08 586.07L1107.98 573.27 1090.29 613.16 1187.36 660.75V686.94L1305.23 686.94V669.75C1318.53 669.75 1329.43 658.95 1329.43 645.56V590.97C1329.43 561.68 1305.63 537.88 1276.34 537.88H1220.05C1202.76 537.88 1188.86 551.88 1188.86 569.08V608.86L1146.17 590.07" fill="#ffffff" opacity="1" stroke-width="2" stroke="none"></path><path d="M1137.08 586.07L1107.98 573.27 1090.29 613.16 1187.36 660.75V686.94L1305.23 686.94V669.75C1318.53 669.75 1329.43 658.95 1329.43 645.56V590.97C1329.43 561.68 1305.63 537.88 1276.34 537.88H1220.05C1202.76 537.88 1188.86 551.88 1188.86 569.08V608.86L1146.17 590.07" stroke="#333333" stroke-width="2" stroke-linecap="round" stroke-linejoin="round" opacity="1" fill="none"></path><path d="M1230.25 502.79C1230.25 502.79 1259.94 485 1284.54 507.69 1289.64 512.39 1299.63 526.49 1291.84 545.08 1283.84 557.38 1269.04 564.28 1253.75 561.48 1226.85 556.58 1214.16 525.09 1230.25 502.79Z" fill="#ffffff" stroke="#333333" stroke-width="2" stroke-linecap="round" stroke-linejoin="round" opacity="1"></path><path d="M1242.05 518.59L1239.95 530.49" stroke="#333333" stroke-width="2" stroke-linecap="round" stroke-linejoin="round" opacity="1" fill="none"></path><path d="M1249.75 532.29C1249.25 534.98 1246.65 536.78 1243.95 536.28 1241.25 535.78 1239.45 533.18 1239.95 530.49" stroke="#333333" stroke-width="2" stroke-linecap="round" stroke-linejoin="round" opacity="1" fill="none"></path><path d="M1267.34 488C1293.43 492.8 1306.53 522.69 1291.94 545.08 1282.94 543.48 1277.04 534.88 1278.74 525.89L1281.24 512.19 1230.35 502.89C1238.45 491.5 1252.65 485.3 1267.34 488Z" fill="#48466d" stroke="#333333" stroke-width="2" stroke-linecap="round" stroke-linejoin="round" opacity="1"></path><path d="M1153.47 564.68H1220.75L1228.45 612.46 1209.16 604.67 1193.96 648.65 1231.15 663.55H1169.37L1153.47 564.68Z" fill="#abedd8" stroke="#333333" stroke-width="2" stroke-linecap="round" stroke-linejoin="round" opacity="1"></path><path d="M1305.23 669.75H1246.75L1231.15 663.55" stroke="#333333" stroke-width="2" stroke-linecap="round" stroke-linejoin="round" opacity="1" fill="none"></path><path d="M1280.74 606.57C1280.74 616.36 1288.64 624.26 1298.43 624.26H1257.64L1228.35 612.46" stroke="#333333" stroke-width="2" stroke-linecap="round" stroke-linejoin="round" opacity="1" fill="none"></path><path d="M1225.35 738.33V726.33" stroke="#333333" stroke-width="2" stroke-linecap="round" stroke-linejoin="round" opacity="1" fill="none"></path><path d="M1225.35 907.19V746.93" stroke="#333333" stroke-width="2" stroke-linecap="round" stroke-linejoin="round" opacity="1" fill="none"></path></g><g><path d="M594.64 945.65H606.59" stroke="#333333" stroke-width="2" stroke-linecap="round" stroke-linejoin="round" opacity="1" fill="none"></path><path d="M526.61 945.65H582.69" stroke="#333333" stroke-width="2" stroke-linecap="round" stroke-linejoin="round" opacity="1" fill="none"></path><path d="M493.55 945.65L516.9 945.65" stroke="#333333" stroke-width="2" stroke-linecap="round" stroke-linejoin="round" opacity="1" fill="none"></path><path d="M629.38 907.84H354.37C344.09 907.84 335.83 916.27 335.83 926.75 335.83 937.22 344.09 945.65 354.37 945.65H483.83" stroke="#333333" stroke-width="2" stroke-linecap="round" stroke-linejoin="round" opacity="1" fill="none"></path><path d="M1271.43 907.84L645.02 907.84" stroke="#333333" stroke-width="2" stroke-linecap="round" stroke-linejoin="round" opacity="1" fill="none"></path><path d="M1337.22 907.84H1290.53" stroke="#333333" stroke-width="2" stroke-linecap="round" stroke-linejoin="round" opacity="1" fill="none"></path><path d="M1409.94 907.84H1359.23" stroke="#333333" stroke-width="2" stroke-linecap="round" stroke-linejoin="round" opacity="1" fill="none"></path><path d="M276.07 979.81H190.06" stroke="#333333" stroke-width="2" stroke-linecap="round" stroke-linejoin="round" opacity="1" fill="none"></path><path d="M504.5 945.65C504.5 964.78 489.31 980.16 470.65 980.16L288.58 980.16" stroke="#333333" stroke-width="2" stroke-linecap="round" stroke-linejoin="round" opacity="1" fill="none"></path></g></svg>